<?xml version="1.0" encoding="UTF-8" standalone="no"?>
<!DOCTYPE svg PUBLIC "-//W3C//DTD SVG 1.1//EN" "http://www.w3.org/Graphics/SVG/1.1/DTD/svg11.dtd">
<!-- Created with Vectornator (http://vectornator.io/) -->
<svg height="100%" stroke-miterlimit="10" style="fill-rule:nonzero;clip-rule:evenodd;stroke-linecap:round;stroke-linejoin:round;" version="1.1" viewBox="0 0 841.995 595.35" width="100%" xml:space="preserve" xmlns="http://www.w3.org/2000/svg" xmlns:vectornator="http://vectornator.io" xmlns:xlink="http://www.w3.org/1999/xlink">
<defs/>
<g id="Layer-1" vectornator:layerName="Layer 1">
<g opacity="1">
<path d="M326.738 243.302C325.839 244.201 287.523 275.505 286.525 274.507C282.837 278.194 277.919 280.671 273.734 283.81C264.52 290.72 255.055 296.695 245.827 303.286C243.986 304.601 233.553 312.064 232.164 311.717C228.845 310.887 225.112 306.361 222.28 304.158C213.746 297.52 204.633 291.595 196.118 284.972C194.548 283.752 186.402 277.222 185.071 278.286C180.311 282.095 176.563 289.686 172.571 294.565C163.308 305.886 155.284 319.41 144.955 329.74C142.615 332.079 138.185 334.142 135.362 335.554C127.861 339.304 121.084 345.458 113.85 349.798C107.895 353.371 102.037 357.405 96.408 361.426C95.1656 362.313 91.8961 364.094 89.304 365.762C91.2158 366.545 261.554 419.686 264.432 419.275C265.567 419.113 264.722 418.243 264.722 417.821C264.722 417.096 266.068 416.094 266.466 415.496C270.493 409.456 271.946 403.155 269.664 396.31C267.969 391.225 260.959 387.306 256.292 384.973C246.188 379.921 234.378 375.958 232.455 363.461C232.035 360.734 231.997 358.026 232.745 355.031C233.65 351.414 234.943 347.147 236.525 343.984C246.122 324.79 260.855 307.411 275.769 291.077C277.728 288.932 321.547 248.751 326.738 243.302Z" fill="#7b2476" fill-rule="nonzero" opacity="1" stroke="none"/>
<path d="M265.304 64.623C262.007 69.3244 176.475 217.536 143.249 273.673C137.016 284.204 91.014 363.194 89.3509 365.688C89.787 366.125 134.344 289.478 134.78 289.914C145.07 280.654 154.673 270.312 164.431 260.554C187.736 237.249 211.09 213.995 234.49 190.786C238.757 186.553 245.134 183.98 250.187 180.612C258.941 174.776 267.996 169.514 276.641 163.751C280.869 160.932 285.219 158.139 289.432 155.612C289.617 155.5 289.819 155.224 290.013 155.321C292.601 156.615 293.345 159.86 294.955 162.007C298.221 166.362 301.159 171.023 304.257 175.67L320.571 200.14L331.002 215.786C333.827 220.024 336.324 225.76 339.722 229.158C341.261 227.62 354.534 209.793 353.958 208.847C351.692 205.129 268.16 67.4796 265.304 64.623Z" fill="#bc228a" fill-rule="nonzero" opacity="1" stroke="none"/>
<path d="M134.144 289.165C132.639 291.693 90.0231 364.478 89.2996 365.732C101.741 359.512 115.489 349.19 127.222 341.368C133.492 337.188 141.318 333.958 146.699 328.577C156.603 318.673 164.272 305.709 173.152 294.856C176.433 290.847 181.634 281.256 185.652 278.577C186.951 277.711 189.485 281.035 190.594 281.775C195.053 284.747 199.207 288.098 203.676 291.077C210.053 284.7 215.722 276.759 221.118 269.565C232.121 254.894 244.429 240.672 256.292 226.833C261.517 230.752 265.274 241.985 269.664 247.472C272.121 245.015 274.231 241.579 275.478 238.461C276.222 236.602 278.575 234.883 279.548 232.937C280.603 230.828 284.068 226.425 284.199 223.926C284.421 219.71 284.626 212.552 283.618 208.519C282.168 202.718 276.641 197.724 276.641 191.367C276.641 184.639 281.581 177.593 283.618 171.891C285.052 167.874 285.252 163.098 287.397 158.809C284.847 156.26 278.543 162.261 276.06 163.751C265.649 169.997 255.176 176.704 244.955 183.519C241.579 185.769 237.684 187.329 234.78 190.205C215.063 209.731 195.486 229.399 175.769 248.926C172.103 252.555 168.411 256.284 164.722 259.972C154.941 269.753 143.261 278.746 134.144 289.165Z" fill="#f97a27" fill-rule="nonzero" opacity="1" stroke="none"/>
<path d="M339.866 228.725C328.106 240.485 282.088 295.881 280.42 299.217C279.755 300.547 279.096 301.895 278.461 303.26C273.865 313.147 270.538 323.93 275.187 335.554C284.184 358.044 320.598 362.342 338.85 375.379C342.475 377.969 347.571 381.19 348.734 385.845C349.317 388.178 347.58 394.574 349.025 396.019C349.296 396.29 445.479 367.309 444.938 366.238C444.494 365.36 443.16 363.587 442.63 362.879C440.859 363.47 427.365 352.012 425.188 350.379C417.137 344.341 409.535 337.621 401.35 331.775C395.522 327.612 387.505 324.616 382.455 319.565C380.587 317.697 379.164 314.274 377.804 312.007C373.521 304.869 368.661 297.5 365.013 290.205C363.338 286.855 361.465 281.951 358.036 285.263C358.327 285.554 358.327 285.554 358.618 285.844C355.124 292.832 352.35 299.961 346.409 305.903C344.517 307.794 340.209 307.644 338.269 309.972C336.365 312.257 334.568 319.294 331.583 320.147C326.271 321.664 319.866 324.261 314.722 326.833C312.64 327.874 299.373 335.485 296.699 334.391C295.091 333.733 291.741 329.953 290.594 328.577C286.179 323.279 283.202 311.247 287.106 304.74C295.525 290.708 306.81 276.317 316.351 262.96C320.195 257.579 340.862 230.218 339.866 228.725Z" fill="#472a6a" fill-rule="nonzero" opacity="1" stroke="none"/>
<path d="M290.013 154.74C288.523 155.485 286.483 156.816 285.362 157.937C287.422 160.513 283.411 170.41 283.036 171.309C280.548 177.281 276.06 185.793 276.06 192.821C276.06 196.792 279.965 201.213 281.583 204.449C284.371 210.025 283.618 217.856 283.618 223.926C283.618 226.32 280.313 229.055 279.257 230.902C277.077 234.718 270.117 245.447 269.373 247.182C269.039 247.962 272.66 252.756 273.153 253.577C276.517 259.185 279.7 264.997 283.327 270.437C284.23 271.792 285.484 275.129 287.106 275.67C288.993 276.299 292.924 271.694 294.374 270.728C302.541 265.283 311.028 259.681 317.92 252.705C334.944 235.473 332.022 237.813 339.975 228.843C336.751 225.62 334.285 220.13 331.583 216.077C324.325 205.19 316.502 194.004 309.781 182.937C307.145 178.598 303.057 174.722 300.769 170.147C298.227 165.063 294.189 158.915 290.013 154.74Z" fill="#f75129" fill-rule="nonzero" opacity="1" stroke="none"/>
<path d="M356.524 204.933C355.13 205.63 319.296 258.221 317.629 260.554C307.502 274.732 297.058 288.795 287.397 303.286C283.317 309.405 284.085 321.777 289.432 327.124C296.089 323.795 302.382 318.946 308.618 315.205C320.936 307.814 333.132 300.671 345.246 293.403C347.324 292.156 359.11 283.78 360.943 284.391C362.742 284.991 364.554 290.449 365.304 291.949C369.469 300.28 376.172 311.944 381.874 319.275C385.362 323.76 392 326.317 396.699 329.449C405.184 335.106 413.155 341.683 421.118 348.054C426.558 352.406 432.022 356.797 437.688 360.845C438.543 361.455 444.281 366.646 444.948 366.257C438.379 354.708 361.448 211.087 356.524 204.933Z" fill="#20c2da" fill-rule="nonzero" opacity="1" stroke="none"/>
<path d="M339.98 228.806C339.946 228.84 339.911 228.875 339.875 228.911C336.592 232.212 324.779 244.84 311.699 259.65C298.369 274.744 283.243 292.443 272.772 306.873C265.196 317.312 260.494 330.374 260.59 332.821C260.707 335.791 265.911 348.731 267.92 351.833C271.622 357.549 274.98 362.365 280.711 366.949C291.93 375.925 305.775 378.844 317.048 387.298C319.51 389.144 322.915 391.579 323.734 394.856C323.966 395.783 322.797 401.984 324.315 402.996C325.492 403.78 346.331 397.004 349.343 395.953C347.995 394.605 350.104 388.955 349.606 386.717C348.475 381.627 343.083 377.613 339.141 374.798C320.512 361.491 287.378 358.772 276.35 336.717C272.379 328.775 272.668 317.725 275.769 309.972C276.873 307.211 278.686 303.469 280.129 300.961C280.891 299.637 286.895 289.772 295.372 280.925C308.893 266.812 338.767 230.948 339.98 228.806Z" fill="#f97a27" fill-rule="nonzero" opacity="1" stroke="none"/>
<path d="M339.957 228.841C340.567 228.031 270.214 295.924 264.722 302.414C252.726 316.592 242.043 330.412 235.075 346.67C233.056 351.381 230.839 357.445 231.292 362.879C231.436 364.609 232.443 366.876 232.745 368.693C233.296 371.996 238.427 375.949 240.885 377.705C249.387 383.778 259.188 385.543 267.048 393.403C271.453 397.808 270.995 405.046 268.792 410.554C268.25 411.908 262.576 418.695 264.494 419.334C266.806 420.105 272.933 417.41 275.187 416.659C284.5 413.555 296.118 414.172 296.118 401.252C296.118 393.41 284.219 386.14 277.222 384.391C262.1 380.611 247.342 367.187 248.443 350.67C249.732 331.343 262.11 315.782 273.443 300.67C277.468 295.304 282.384 290.276 287.106 285.554C290.177 282.483 336.891 232.916 339.957 228.841Z" fill="#0d7ba4" fill-rule="nonzero" opacity="1" stroke="none"/>
<path d="M260.77 231.779C258.878 233.67 259.162 240.17 257.746 242.53C253.626 249.397 252.01 258 247.862 264.914C244.354 270.761 238.203 275.298 234.199 280.903C229.175 287.936 226.892 297.014 221.408 303.868C222.776 305.919 224.683 307.188 226.468 308.626C232.916 313.822 233.558 311.853 239.432 307.937C236.925 305.431 240.203 304.685 241.176 302.414C242.316 299.754 242.915 296.433 244.664 293.984C248.976 287.947 255.271 283.07 260.653 277.996C262.398 276.35 264.235 274.795 265.885 273.054C268.625 270.162 266.615 265.116 266.757 261.135C266.837 258.906 266.877 256.673 267.048 254.449C267.247 251.858 266.206 246.86 268.211 244.856C265.802 241.243 262.788 235.606 260.77 231.779Z" fill="#025577" fill-rule="nonzero" opacity="1" stroke="none"/>
<path d="M289.432 326.833C289.926 328.811 290.087 328.576 291.757 330.321C293.321 331.956 294.482 334.078 296.408 335.263C298.727 336.69 308.781 329.756 311.234 329.449C316.121 328.838 322.075 324.415 326.932 322.472C328.709 321.761 332.637 321.037 333.618 319.565C335.648 316.52 336.579 312.127 339.432 309.682C341.187 308.177 344.568 308.094 346.409 306.484C350.531 302.876 356.129 295.74 358.036 290.496C358.621 288.887 360.261 286.168 361.093 284.504C359.285 282.696 344.665 293.112 341.757 294.856C324.501 305.21 306.716 315.31 289.432 326.833Z" fill="#bc228a" fill-rule="nonzero" opacity="1" stroke="none"/>
<path d="M267.959 244.515C265.37 247.105 266.577 257.738 266.466 260.844C266.352 264.041 266.358 267.243 266.176 270.437C266.144 270.988 265.567 272.746 265.304 273.054C262.494 276.332 259.179 279.142 256.001 282.065C252.023 285.725 246.824 289.186 244.083 293.984C242.738 296.337 242.047 299.509 240.594 301.833C239.04 304.32 236.533 305.62 239.141 308.228C251.797 301.9 287.152 276.563 287.33 275.672C287.666 273.992 272.391 251.722 267.959 244.515Z" fill="#1e3350" fill-rule="nonzero" opacity="1" stroke="none"/>
<path d="M254.548 227.995C255.976 229.423 248.751 241.23 247.571 243.984C243.541 253.388 237.789 264.762 231.873 273.635C228.395 278.853 223.404 282.825 219.373 287.589C216.851 290.57 216.401 295.503 213.559 298.344C214.791 299.576 219.96 304.593 221.699 304.158C223.654 303.67 230.616 288.36 231.873 285.844C235.695 278.202 242.943 272.672 247.862 265.786C249.504 263.487 249.864 260.124 251.35 257.647C254.438 252.5 257.286 245.423 259.49 239.914C260.057 238.495 261.525 235.325 261.525 233.809C261.525 232.306 258.052 227.037 256.873 226.251C255.852 225.57 254.933 227.417 254.548 227.995Z" fill="#0cacca" fill-rule="nonzero" opacity="1" stroke="none"/>
<path d="M254.839 227.705C244.144 238.399 235.356 251.452 225.769 263.17C218.359 272.226 209.885 281.036 203.385 290.786C206.234 293.635 210.223 296.822 213.85 298.635C216.373 296.112 217.876 291.456 219.373 288.461C222.169 282.87 228.885 279.28 232.455 273.926C238.434 264.957 244.069 253.511 248.153 243.984C249.492 240.858 256.828 229.694 254.839 227.705Z" fill="#20c2da" fill-rule="nonzero" opacity="1" stroke="none"/>
</g>
</g>
</svg>
